# xmcd
#
# Track frame offsets: 
#        150
#        10990
#        25782
#        43388
#        59299
#        68411
#        84712
#        93182
#        121918
#        137439
#
# Disc length: 2173 seconds
#
# Revision: 0
# Processed by: cddbd v1.5.2PL0 Copyright (c) Steve Scherf et al.
# Submitted via: ExactAudioCopy v0.99pb3
#
DISCID=79087b0a
DTITLE=New Estate - Considering...
DYEAR=2004
DGENRE=W.Minc
TTITLE0=Don't Like The Way
TTITLE1=Dream Planner
TTITLE2=Open
TTITLE3=Free Sherry
TTITLE4=Broadway
TTITLE5=Learning Zone
TTITLE6=Collage
TTITLE7=Please Leave
TTITLE8=Same Old
TTITLE9=Out Of Control
EXTD=
EXTT0=
EXTT1=
EXTT2=
EXTT3=
EXTT4=
EXTT5=
EXTT6=
EXTT7=
EXTT8=
EXTT9=
PLAYORDER=
